<svg width="172" height="31" viewBox="0 0 172 31" fill="none" xmlns="http://www.w3.org/2000/svg">
<path d="M0.944 24V1.92H3.92L11.664 18.304L19.376 1.92H22.352V24H20.208V4.768L12.72 20.704H10.576L3.088 4.768V24H0.944ZM27.7773 19.296V7.424H29.7933V19.616C29.7933 21.3653 30.6679 22.24 32.4173 22.24H39.2973V7.424H41.3133V24H32.4813C29.3453 24 27.7773 22.432 27.7773 19.296ZM46.5928 24V7.424H55.4568C58.5714 7.424 60.1287 8.992 60.1287 12.128V24H58.1128V11.808C58.1128 10.08 57.2488 9.216 55.5208 9.216H48.6088V24H46.5928ZM65.0243 19.296V12.128C65.0243 8.992 66.5923 7.424 69.7283 7.424H76.5443V0.32H78.5603V24H69.7283C66.5923 24 65.0243 22.432 65.0243 19.296ZM67.0403 19.616C67.0403 21.3653 67.9149 22.24 69.6643 22.24H76.5443V9.216H69.6643C67.9149 9.216 67.0403 10.08 67.0403 11.808V19.616ZM83.5868 19.296V12.128C83.5868 8.992 85.1548 7.424 88.2908 7.424H92.7708C95.8854 7.424 97.4428 8.992 97.4428 12.128V19.296C97.4428 22.432 95.8854 24 92.7708 24H88.2908C85.1548 24 83.5868 22.432 83.5868 19.296ZM85.6028 19.616C85.6028 21.3653 86.4774 22.24 88.2268 22.24H92.8348C94.5628 22.24 95.4268 21.3653 95.4268 19.616V11.808C95.4268 10.08 94.5628 9.216 92.8348 9.216H88.2268C86.4774 9.216 85.6028 10.08 85.6028 11.808V19.616ZM101.828 23.04V22.048H111.684C113.348 22.048 114.18 21.216 114.18 19.552V16.864C114.18 15.4773 113.561 14.656 112.324 14.4L105.284 12.96C102.98 12.512 101.828 10.976 101.828 8.352V6.688C101.828 3.50933 103.417 1.92 106.596 1.92H114.468L115.684 2.88V3.872H106.5C104.814 3.872 103.972 4.704 103.972 6.368V8.576C103.972 9.984 104.59 10.816 105.828 11.072L112.9 12.448C115.182 12.9173 116.324 14.4533 116.324 17.056V19.232C116.324 22.4107 114.734 24 111.556 24H103.076L101.828 23.04ZM120.968 24V0.32H122.984V7.424H129.832C132.946 7.424 134.504 8.992 134.504 12.128V24H132.488V11.808C132.488 10.08 131.624 9.216 129.896 9.216H122.984V24H120.968ZM139.399 19.296V12.128C139.399 8.992 140.967 7.424 144.103 7.424H148.583C151.698 7.424 153.255 8.992 153.255 12.128V19.296C153.255 22.432 151.698 24 148.583 24H144.103C140.967 24 139.399 22.432 139.399 19.296ZM141.415 19.616C141.415 21.3653 142.29 22.24 144.039 22.24H148.647C150.375 22.24 151.239 21.3653 151.239 19.616V11.808C151.239 10.08 150.375 9.216 148.647 9.216H144.039C142.29 9.216 141.415 10.08 141.415 11.808V19.616ZM158.28 30.4V7.424H167.144C170.259 7.424 171.816 8.992 171.816 12.128V19.296C171.816 22.432 170.259 24 167.144 24H160.296V30.4H158.28ZM160.296 22.24H167.208C168.936 22.24 169.8 21.3653 169.8 19.616V11.808C169.8 10.08 168.936 9.216 167.208 9.216H160.296V22.24Z" fill="#F097FF"/>
</svg>
