<svg width="323" height="57" viewBox="0 0 323 57" fill="none" xmlns="http://www.w3.org/2000/svg">
<path d="M0.4 45V3.6H7.06L20.92 33L34.72 3.6H41.38V45H36.34V11.16L23.26 39H18.52L5.44 11.16V45H0.4ZM51.3569 36V13.8H56.1569V36.6C56.1569 39.4 57.5569 40.8 60.3569 40.8H72.3569V13.8H77.1569V45H60.3569C54.3569 45 51.3569 42 51.3569 36ZM86.7531 45V13.8H103.553C109.553 13.8 112.553 16.8 112.553 22.8V45H107.753V22.2C107.753 19.4 106.353 18 103.553 18H91.5531V45H86.7531ZM121.429 36V22.8C121.429 16.8 124.429 13.8 130.429 13.8H142.429V0.599999H147.229V45H130.429C124.429 45 121.429 42 121.429 36ZM126.229 36.6C126.229 39.4 127.629 40.8 130.429 40.8H142.429V18H130.429C127.629 18 126.229 19.4 126.229 22.2V36.6ZM156.351 36V22.8C156.351 16.8 159.351 13.8 165.351 13.8H173.751C179.751 13.8 182.751 16.8 182.751 22.8V36C182.751 42 179.751 45 173.751 45H165.351C159.351 45 156.351 42 156.351 36ZM161.151 36.6C161.151 39.4 162.551 40.8 165.351 40.8H173.751C176.551 40.8 177.951 39.4 177.951 36.6V22.2C177.951 19.4 176.551 18 173.751 18H165.351C162.551 18 161.151 19.4 161.151 22.2V36.6ZM190.67 42.9V40.44H209.15C211.87 40.44 213.23 39.08 213.23 36.36V31.5C213.23 29.22 212.21 27.88 210.17 27.48L197.27 24.84C192.87 23.96 190.67 21.02 190.67 16.02V12.78C190.67 6.66 193.73 3.6 199.85 3.6H214.37L217.07 5.7V8.16H199.79C197.07 8.16 195.71 9.52 195.71 12.24V16.32C195.71 18.6 196.73 19.94 198.77 20.34L211.67 22.92C216.07 23.8 218.27 26.76 218.27 31.8V35.82C218.27 41.94 215.21 45 209.09 45H193.37L190.67 42.9ZM226.675 45V0.599999H231.475V13.8H243.475C249.475 13.8 252.475 16.8 252.475 22.8V45H247.675V22.2C247.675 19.4 246.275 18 243.475 18H231.475V45H226.675ZM261.351 36V22.8C261.351 16.8 264.351 13.8 270.351 13.8H278.751C284.751 13.8 287.751 16.8 287.751 22.8V36C287.751 42 284.751 45 278.751 45H270.351C264.351 45 261.351 42 261.351 36ZM266.151 36.6C266.151 39.4 267.551 40.8 270.351 40.8H278.751C281.551 40.8 282.951 39.4 282.951 36.6V22.2C282.951 19.4 281.551 18 278.751 18H270.351C267.551 18 266.151 19.4 266.151 22.2V36.6ZM296.87 57V13.8H313.67C319.67 13.8 322.67 16.8 322.67 22.8V36C322.67 42 319.67 45 313.67 45H301.67V57H296.87ZM301.67 40.8H313.67C316.47 40.8 317.87 39.4 317.87 36.6V22.2C317.87 19.4 316.47 18 313.67 18H301.67V40.8Z" fill="white"/>
</svg>
